<?xml version="1.0" encoding="iso-8859-1"?>
<!-- Generator: Adobe Illustrator 19.0.0, SVG Export Plug-In . SVG Version: 6.00 Build 0)  -->
<svg version="1.1" id="Capa_1" xmlns="http://www.w3.org/2000/svg" xmlns:xlink="http://www.w3.org/1999/xlink" x="0px" y="0px"
	 viewBox="0 0 512.001 512.001" style="enable-background:new 0 0 512.001 512.001;" xml:space="preserve">
<path style="fill:#DA745E;" d="M117.462,56.08l31.05,7.973c28.323,7.273,50.44,29.389,57.713,57.712l0,0
	c7.273,28.323,29.389,50.44,57.712,57.713l0,0c28.323,7.273,50.44,29.389,57.712,57.712l0,0
	c7.273,28.323,29.389,50.44,57.712,57.712l0,0c28.323,7.273,50.44,29.389,57.712,57.712l7.973,31.05
	c2.367,9.217-0.309,18.999-7.038,25.728l-83.831,83.831c-14.741,14.741-39.921,7.853-45.106-12.339l-0.055-0.213
	c-7.273-28.323-29.389-50.44-57.713-57.712l0,0c-28.323-7.273-50.44-29.389-57.712-57.712l0,0
	c-7.273-28.323-29.389-50.44-57.712-57.712l0,0c-28.323-7.273-50.44-29.389-57.713-57.712l0,0
	c-7.273-28.323-29.389-50.44-57.712-57.712l-0.213-0.055c-20.192-5.185-27.08-30.365-12.339-45.106l83.831-83.831
	C98.463,56.389,108.245,53.713,117.462,56.08z"/>
<path style="fill:#F298B8;" d="M62.972,91.88l48.548,12.466c26.703,6.857,47.555,27.709,54.412,54.412l1.349,5.253
	c6.857,26.703,27.708,47.555,54.412,54.412l5.253,1.349c26.703,6.857,47.555,27.708,54.412,54.412l1.349,5.253
	c6.857,26.703,27.708,47.555,54.412,54.412l5.253,1.349c26.703,6.857,47.555,27.709,54.412,54.412l12.466,48.548l-44.403,44.403
	l-12.466-48.548c-6.857-26.703-27.708-47.555-54.412-54.412l-5.253-1.349c-26.703-6.857-47.555-27.708-54.412-54.412l-1.349-5.253
	c-6.857-26.703-27.708-47.555-54.412-54.412l-5.253-1.349c-26.703-6.857-47.555-27.709-54.412-54.412l-1.349-5.253
	c-6.857-26.703-27.708-47.555-54.412-54.412l-48.548-12.466L62.972,91.88z"/>
<path style="opacity:0.1;enable-background:new    ;" d="M251.305,422.96c28.323,7.273,50.44,29.389,57.713,57.712l0.055,0.213
	c5.185,20.192,30.365,27.08,45.106,12.339l41.092-41.091c-12.636-3.744-23.318-16.686-29.429-40.041
	c-5.107-19.521-16.982-34.699-32.291-45.152c7.967-11.201,13.964-23.92,17.495-37.671c4.13-16.087,16.529-28.696,32.47-33.168
	c-1.37-0.431-2.751-0.838-4.152-1.198l0,0c-28.323-7.273-50.44-29.389-57.712-57.713l0,0c-7.273-28.323-29.39-50.44-57.712-57.712
	l0,0c-28.323-7.273-50.44-29.389-57.712-57.713l0,0c-0.338-1.315-0.718-2.612-1.119-3.899
	c-16.616,11.018-30.139,26.263-39.076,44.259c-17.374-26.635-48.518-36.905-73.984-38.062
	c-22.019-1.001-29.099-16.015-29.055-32.202L7.903,146.949c-14.741,14.741-7.852,39.921,12.339,45.106l0.213,0.055
	c28.323,7.273,50.44,29.389,57.712,57.712l0,0c7.273,28.323,29.39,50.44,57.713,57.712l0,0c28.323,7.273,50.44,29.389,57.712,57.712
	l0,0C200.865,393.571,222.982,415.687,251.305,422.96L251.305,422.96z"/>
<path style="fill:#DA745E;" d="M394.54,11.72l-31.05,7.973c-28.323,7.273-50.44,29.389-57.712,57.713l0,0
	c-7.273,28.323-29.389,50.44-57.712,57.713l0,0c-28.323,7.273-50.44,29.389-57.713,57.712l0,0
	c-7.273,28.323-29.389,50.44-57.712,57.713l0,0c-28.323,7.273-50.44,29.389-57.712,57.712l-7.973,31.05
	c-2.367,9.217,0.309,18.999,7.038,25.728l83.831,83.831c14.741,14.741,39.921,7.853,45.106-12.339l0.055-0.213
	c7.273-28.323,29.389-50.44,57.712-57.713l0,0c28.323-7.273,50.44-29.389,57.712-57.712l0,0
	c7.273-28.323,29.389-50.44,57.713-57.712l0,0c28.323-7.273,50.44-29.389,57.712-57.712l0,0
	c7.273-28.323,29.389-50.44,57.712-57.712l0.213-0.055c20.192-5.185,27.08-30.365,12.339-45.106L420.268,18.76
	C413.539,12.03,403.757,9.354,394.54,11.72z"/>
<path style="fill:#F298B8;" d="M449.03,47.52l-48.548,12.466c-26.703,6.857-47.555,27.708-54.412,54.412l-1.349,5.253
	c-6.857,26.703-27.708,47.555-54.412,54.412l-5.253,1.349c-26.703,6.857-47.555,27.709-54.412,54.412l-1.349,5.253
	c-6.857,26.703-27.708,47.555-54.412,54.412l-5.253,1.349c-26.703,6.857-47.555,27.708-54.412,54.412l-12.466,48.548l44.403,44.403
	l12.466-48.548c6.857-26.703,27.708-47.555,54.412-54.412l5.253-1.349c26.703-6.857,47.555-27.708,54.412-54.412l1.349-5.253
	c6.857-26.703,27.708-47.555,54.412-54.412l5.253-1.349c26.703-6.857,47.555-27.709,54.412-54.412l1.349-5.253
	c6.857-26.703,27.708-47.555,54.412-54.412l48.548-12.466L449.03,47.52z"/>
<path style="opacity:0.05;enable-background:new    ;" d="M213.908,310.796c-23.533-41.106-29.5-77.005-23.857-116.871
	c-7.557,27.795-29.456,49.439-57.411,56.618l0,0c-28.323,7.273-50.44,29.389-57.713,57.712l-7.973,31.05
	c-2.367,9.217,0.309,18.999,7.038,25.728l83.831,83.831c14.741,14.741,39.921,7.853,45.106-12.339l0.055-0.213
	c7.273-28.323,29.389-50.44,57.713-57.712l0,0c28.323-7.273,50.44-29.389,57.713-57.712l0,0c1.054-4.105,2.429-8.074,4.08-11.892
	C259.507,346.253,227.771,335.011,213.908,310.796z"/>
<g style="opacity:0.1;">
	<circle cx="338.881" cy="186.63" r="8.196"/>
	<circle cx="378.881" cy="43.794" r="8.196"/>
	<circle cx="174.701" cy="116.42" r="8.196"/>
	<circle cx="362.491" cy="377.38" r="8.196"/>
	<circle cx="94.561" cy="216.54" r="8.196"/>
	<circle cx="149.991" cy="332.94" r="8.196"/>
	<circle cx="260.191" cy="352.94" r="8.196"/>
	<circle cx="228.831" cy="180.44" r="8.196"/>
</g>
<g style="opacity:0.2;">
	<circle style="fill:#FFFFFF;" cx="249.001" cy="270.43" r="8.196"/>
	<circle style="fill:#FFFFFF;" cx="102.751" cy="129.61" r="8.196"/>
	<circle style="fill:#FFFFFF;" cx="426.731" cy="152.55" r="8.196"/>
	<circle style="fill:#FFFFFF;" cx="330.691" cy="453.75" r="8.196"/>
</g>
<g>
</g>
<g>
</g>
<g>
</g>
<g>
</g>
<g>
</g>
<g>
</g>
<g>
</g>
<g>
</g>
<g>
</g>
<g>
</g>
<g>
</g>
<g>
</g>
<g>
</g>
<g>
</g>
<g>
</g>
</svg>
